<svg xmlns="http://www.w3.org/2000/svg" width="223" height="152" viewBox="0 0 223 152"><defs><linearGradient id="a" x1=".015%" x2="100.034%" y1="50.011%" y2="50.011%"><stop offset="0%" stop-color="gray" stop-opacity=".25"/><stop offset="54%" stop-color="gray" stop-opacity=".12"/><stop offset="100%" stop-color="gray" stop-opacity=".1"/></linearGradient><linearGradient id="b" x1="97945%" x2="97945%" y1="73859%" y2="64678%"><stop offset="0%" stop-color="gray" stop-opacity=".25"/><stop offset="54%" stop-color="gray" stop-opacity=".12"/><stop offset="100%" stop-color="gray" stop-opacity=".1"/></linearGradient><linearGradient id="c" x1="60065%" x2="60065%" y1="65011%" y2="11900%"><stop offset="0%" stop-color="gray" stop-opacity=".25"/><stop offset="54%" stop-color="gray" stop-opacity=".12"/><stop offset="100%" stop-color="gray" stop-opacity=".1"/></linearGradient><linearGradient id="d" x1="48572%" x2="48572%" y1="61560%" y2="37770%"><stop offset="0%" stop-color="gray" stop-opacity=".25"/><stop offset="54%" stop-color="gray" stop-opacity=".12"/><stop offset="100%" stop-color="gray" stop-opacity=".1"/></linearGradient></defs><g fill="none" fill-rule="evenodd"><path fill="url(#a)" fill-rule="nonzero" d="M27.709 18.144a5.429 5.429 0 0 0-2.129-5.733c-.469-.32-.992-.562-1.425-.93-.722-.612-1.138-1.513-1.43-2.414-.714-2.161-.94-4.588-2.192-6.54C19.395.75 17.173.235 15.204.054c-.717-.064-1.47-.099-2.126.202-1.097.5-1.62 1.805-1.67 3.018-.05 1.213.263 2.408.34 3.62.078 1.21-.136 2.543-1.021 3.364-.886.821-2.156.917-3.333 1.082-1.541.216-3.055.595-4.517 1.131C1.65 12.93.282 13.734.225 15.046c-.047 1.073.813 1.931 1.46 2.787 1.208 1.605 1.82 3.706 1.402 5.672-.419 1.965-1.821 3.717-2.065 5.745a2.512 2.512 0 0 0 .203 1.518c.196.32.454.598.76.815.758.589 1.594 1.064 2.322 1.704 1.496 1.335 2.306 3.273 2.93 5.185.059.184.114.372.17.556h-1.47C2.945 39.044.523 41.48.503 44.495c.014 3.02 2.44 5.466 5.438 5.48h14.683c2.998-.014 5.425-2.46 5.439-5.48-.014-3.02-2.44-5.465-5.439-5.479H16.6c.951-1.284 1.946-2.49 3.414-2.982 1.469-.49 3.246-.204 4.398-1.236a3.484 3.484 0 0 0 1-1.993 5.972 5.972 0 0 0-.645-3.94c-.455-.833-1.138-1.587-1.286-2.523-.125-.805.164-1.622.556-2.337 1.11-2.035 3.075-3.615 3.672-5.86z" opacity=".7" transform="translate(14 93)"/><path fill="#4DB6AC" fill-rule="nonzero" d="M29.634 95.042c-.7-.062-1.436-.094-2.076.192-1.072.476-1.583 1.716-1.635 2.866-.05 1.15.26 2.288.334 3.432.075 1.143-.133 2.415-1 3.202-.865.787-2.1.872-3.254 1.027a21.927 21.927 0 0 0-4.411 1.08c-1.198.428-2.534 1.199-2.59 2.448-.047 1.02.794 1.83 1.427 2.646 1.181 1.52 1.77 3.52 1.368 5.387-.402 1.867-1.77 3.532-2.018 5.459-.09.488-.02.993.199 1.44.192.305.446.568.745.774.74.56 1.567 1.011 2.267 1.62 1.462 1.267 2.251 3.108 2.863 4.925a39.219 39.219 0 0 1 1.401 5.46c1.259-.794 2.887-.782 4.23-1.427 2.86-1.373 3.822-5.353 6.841-6.344 1.43-.457 3.172-.194 4.297-1.173a3.275 3.275 0 0 0 .976-1.892 5.537 5.537 0 0 0-.63-3.743c-.451-.791-1.114-1.507-1.257-2.404-.123-.766.162-1.54.542-2.219 1.086-1.933 3.006-3.431 3.592-5.565.523-2.062-.303-4.227-2.079-5.447-.483-.27-.95-.564-1.4-.883-.701-.581-1.105-1.439-1.402-2.288-.7-2.058-.918-4.346-2.141-6.21-1.098-1.702-3.265-2.194-5.189-2.363z"/><path stroke="#535461" d="M30.472 95s2.794 34.994-4.472 41" opacity=".6"/><rect width="25" height="10" x="16" y="132" fill="#4C5BE6" fill-rule="nonzero" rx="5"/><path stroke="#535461" d="M15 108.042s6.753-.737 15 3.958M30 116s3.813-5.877 12-7M16 122.618s8.908-2.076 13 1.382M29 127s4.706-1.977 10-.372" opacity=".6"/><path fill="url(#b)" fill-rule="nonzero" d="M19.036 3.88V.175H.113v17.12c0 1.996 1.653 3.614 3.692 3.614h11.539c2.04 0 3.692-1.618 3.692-3.613v-3.794c1.757 0 3.38-.917 4.259-2.406a4.722 4.722 0 0 0 0-4.812c-.878-1.488-2.502-2.406-4.259-2.406zm0 7.774V5.73a3.043 3.043 0 0 1 2.692 1.457c.56.928.56 2.08 0 3.01a3.043 3.043 0 0 1-2.692 1.456z" opacity=".7" transform="translate(187 121)"/><path fill="#4D5DE7" fill-rule="nonzero" d="M204.5 126a4.5 4.5 0 1 0 0 9 4.5 4.5 0 0 0 0-9zm0 7.268a2.775 2.775 0 1 1 0-5.554 2.775 2.775 0 0 1 0 5.556v-.002z"/><path fill="#000" fill-rule="nonzero" d="M204.5 126a4.5 4.5 0 1 0 0 9 4.5 4.5 0 0 0 0-9zm0 7.268a2.775 2.775 0 1 1 0-5.554 2.775 2.775 0 0 1 0 5.556v-.002z" opacity=".1"/><path fill="#4D5DE7" fill-rule="nonzero" d="M205 122v16.79c0 1.22-.992 2.21-2.215 2.21H190.22a2.212 2.212 0 0 1-2.214-2.21V122H205z"/><path fill="#E0E0E0" fill-rule="nonzero" d="M0 141h223v8H0z"/><path fill="url(#c)" fill-rule="nonzero" d="M75.486 90.701c-2.389-8.65-15.934-14.967-26.124-16.368v-7.595h.032v-.29a25.42 25.42 0 0 0 15.374-16.076 27.408 27.408 0 0 0 1.64-3.529c1.088-.396 1.91-2.184 1.91-4.335a7.552 7.552 0 0 0-.308-2.175 27.75 27.75 0 0 0 .204-3.3 27.478 27.478 0 0 0-9.11-20.459c.086-.443.116-.895.088-1.346-.23-3.554-4.036-5.97-7.602-6.13a7.493 7.493 0 0 0 1.269-7.928c-2.274 3.305-6.944 3.662-10.962 3.683 1.735-.671 2.525-3.068 1.506-4.626-4.2 5.614-12.391 6.656-17.384 11.58a14.62 14.62 0 0 0-2.703 3.678 27.497 27.497 0 0 0-10.4 21.545c.002 1.094.07 2.186.2 3.271a7.536 7.536 0 0 0-.317 2.204c0 2.161.829 3.956 1.926 4.35a27.408 27.408 0 0 0 1.647 3.54A25.416 25.416 0 0 0 31.64 66.418v7.915C21.411 75.706 7.758 82.076 5.39 90.795c-2.044 7.53-4.227 15.794-5.314 20.655 9.309 6.526 28.84 10.355 41.073 10.355 11.632 0 30.64-3.458 39.677-9.398-.955-5.347-3.206-13.983-5.34-21.706z" opacity=".7" transform="translate(71)"/><path fill="#4C5BE6" fill-rule="nonzero" d="M112.679 120c11.234 0 29.593-3.33 38.321-9.053-.944-5.138-3.12-13.456-5.18-20.898C143.195 80.571 126.628 74 116.747 74h-9.523c-9.914 0-26.501 6.608-29.093 16.127-1.975 7.255-4.082 15.22-5.132 19.896 8.983 6.288 27.856 9.977 39.679 9.977z"/><circle cx="111.5" cy="37.5" r="26.5" fill="#72351C" fill-rule="nonzero"/><path fill="#000" fill-rule="nonzero" d="M103 60h17v13.538c0 4.673-3.806 8.462-8.5 8.462s-8.5-3.789-8.5-8.462V60z" opacity=".1"/><path fill="#FDA57D" fill-rule="nonzero" d="M105.44 60h12.122A2.432 2.432 0 0 1 120 62.427v11.111c0 4.673-3.806 8.462-8.5 8.462s-8.5-3.789-8.5-8.462V62.427c0-.644.257-1.262.715-1.717a2.443 2.443 0 0 1 1.725-.71z"/><path fill="#000" fill-rule="nonzero" d="M103 67.274a22.116 22.116 0 0 0 17 .054V65h-17v2.274z" opacity=".1"/><circle cx="111.5" cy="43.5" r="24.5" fill="#FDA57D" fill-rule="nonzero"/><path fill="#000" fill-rule="nonzero" d="M94 21.245s10.21 21.24 39 8.902l-6.693-10.774L114.42 15 94 21.245z" opacity=".1"/><path fill="#72351C" fill-rule="nonzero" d="M94 21.247s10.21 21.238 39 8.9l-6.693-10.775L114.42 15 94 21.247z"/><path fill="#72351C" fill-rule="nonzero" d="M94.513 18.695a13.95 13.95 0 0 1 3.505-5.634C102.83 8.357 110.72 7.364 114.768 2c.972 1.489.23 3.778-1.451 4.417 3.871-.025 8.37-.36 10.562-3.517a7.108 7.108 0 0 1-1.224 7.571c3.438.154 7.105 2.461 7.334 5.854.15 2.266-1.285 4.403-3.165 5.7-1.88 1.296-4.153 1.892-6.392 2.379-6.542 1.428-30.194 7.397-25.919-5.709zM136 43.005h-.652L122.71 54.038c-12.166-5.595-21.118 0-21.118 0L88.336 43.455 87 43.619c.366 13.136 11.416 23.548 24.81 23.379 13.394-.17 24.167-10.858 24.188-23.998l.002.005zm-24.542 15.271c-4.768 0-8.631-.948-8.631-2.117 0-1.168 3.865-2.116 8.63-2.116 4.766 0 8.631.948 8.631 2.116 0 1.169-3.863 2.117-8.63 2.117z"/><ellipse cx="87.5" cy="43.5" fill="#FDA57D" fill-rule="nonzero" rx="2.5" ry="4.5"/><ellipse cx="136.5" cy="43.5" fill="#FDA57D" fill-rule="nonzero" rx="2.5" ry="4.5"/><rect width="94.798" height="54.745" x=".037" y=".161" fill="url(#d)" fill-rule="nonzero" opacity=".7" rx="14.5" transform="translate(64 87)"/><rect width="91" height="54" x="66" y="88" fill="#535461" fill-rule="nonzero" rx="26.84"/><circle cx="111" cy="115" r="3" fill="#FFF" fill-rule="nonzero"/><path fill="#E0E0E0" fill-rule="nonzero" d="M9 149h204v3H9z"/><path fill="#000" fill-rule="nonzero" d="M9 149h204v1H9zM201.305 122v15.692A3.306 3.306 0 0 1 198 141h1.695a3.306 3.306 0 0 0 3.305-3.308V122h-1.695z" opacity=".1"/><path fill="#EEE" fill-rule="nonzero" d="M190.85 109.452c-.297.052-.635.133-.782.4-.236.422.19.9.572 1.187.71.537 1.456 1.065 1.938 1.813.483.749.634 1.794.107 2.514-.688.939-2.329 1.138-2.487 2.293-.102.741.534 1.373 1.182 1.744 1.593.917 3.647 1.162 4.803 2.597.473-.986 1.546-1.556 2.6-1.801 1.055-.245 2.17-.226 3.25-.39.348-.052.74-.159.896-.475.303-.615-.557-1.354-.262-1.972.236-.475.889-.435 1.373-.623.79-.306 1.114-1.328.891-2.138-.222-.81-.855-1.461-1.522-1.986-1.792-1.426-3.947-2.248-6.13-2.852-1.013-.278-2.204-.713-3.256-.758-1.005-.05-2.166.269-3.173.447z"/></g></svg>