<svg xmlns="http://www.w3.org/2000/svg" width="473" height="438" viewBox="0 0 473 438"><defs><linearGradient id="a" x1="49.998%" x2="49.998%" y1="100%" y2="0%"><stop offset="0%" stop-color="gray" stop-opacity=".25"/><stop offset="54%" stop-color="gray" stop-opacity=".12"/><stop offset="100%" stop-color="gray" stop-opacity=".1"/></linearGradient><linearGradient id="b" x1="19180%" x2="19180%" y1="16304%" y2="0%"><stop offset="0%" stop-color="gray" stop-opacity=".25"/><stop offset="54%" stop-color="gray" stop-opacity=".12"/><stop offset="100%" stop-color="gray" stop-opacity=".1"/></linearGradient><linearGradient id="c" x1="56367%" x2="56367%" y1="21547%" y2="88%"><stop offset="0%" stop-color="gray" stop-opacity=".25"/><stop offset="54%" stop-color="gray" stop-opacity=".12"/><stop offset="100%" stop-color="gray" stop-opacity=".1"/></linearGradient><linearGradient id="d" x1="63988%" x2="63988%" y1="47030%" y2="25570%"><stop offset="0%" stop-color="gray" stop-opacity=".25"/><stop offset="54%" stop-color="gray" stop-opacity=".12"/><stop offset="100%" stop-color="gray" stop-opacity=".1"/></linearGradient><linearGradient id="e" x1="45370%" x2="45370%" y1="78090%" y2="65004%"><stop offset="0%" stop-color="gray" stop-opacity=".25"/><stop offset="54%" stop-color="gray" stop-opacity=".12"/><stop offset="100%" stop-color="gray" stop-opacity=".1"/></linearGradient><linearGradient id="f" x1="48873%" x2="48873%" y1="78090%" y2="65004%"><stop offset="0%" stop-color="gray" stop-opacity=".25"/><stop offset="54%" stop-color="gray" stop-opacity=".12"/><stop offset="100%" stop-color="gray" stop-opacity=".1"/></linearGradient><linearGradient id="g" x1="25949%" x2="35792%" y1="69831%" y2="69831%"><stop offset="0%" stop-color="gray" stop-opacity=".25"/><stop offset="54%" stop-color="gray" stop-opacity=".12"/><stop offset="100%" stop-color="gray" stop-opacity=".1"/></linearGradient><linearGradient id="h" x1="23532%" x2="23532%" y1="69690%" y2="56604%"><stop offset="0%" stop-color="gray" stop-opacity=".25"/><stop offset="54%" stop-color="gray" stop-opacity=".12"/><stop offset="100%" stop-color="gray" stop-opacity=".1"/></linearGradient><linearGradient id="i" x1="27035%" x2="27035%" y1="69690%" y2="56604%"><stop offset="0%" stop-color="gray" stop-opacity=".25"/><stop offset="54%" stop-color="gray" stop-opacity=".12"/><stop offset="100%" stop-color="gray" stop-opacity=".1"/></linearGradient><linearGradient id="j" x1="31981%" x2="31981%" y1="69688%" y2="56194%"><stop offset="0%" stop-color="gray" stop-opacity=".25"/><stop offset="54%" stop-color="gray" stop-opacity=".12"/><stop offset="100%" stop-color="gray" stop-opacity=".1"/></linearGradient><linearGradient id="k" x1="84016%" x2="97220%" y1="68209%" y2="68209%"><stop offset="0%" stop-color="gray" stop-opacity=".25"/><stop offset="54%" stop-color="gray" stop-opacity=".12"/><stop offset="100%" stop-color="gray" stop-opacity=".1"/></linearGradient></defs><g fill="none" fill-rule="evenodd"><g><path fill="url(#a)" fill-rule="nonzero" d="M82.193 119.772h170.526V282.18H82.193z"/><path fill="#FFF" fill-rule="nonzero" d="M85.848 123.426h163.209V278.52H85.848z"/><path fill="#4C5BE6" fill-rule="nonzero" d="M91 129h151.498v143.388H91z"/><path fill="url(#b)" fill-rule="nonzero" d="M.15 0h223.955v97.824H.15z" opacity=".5" transform="translate(3.001)"/><path fill="#FFF" fill-rule="nonzero" d="M6.075 1.254h218.096v93.642H6.075z"/><path fill="#4C5BE6" fill-rule="nonzero" d="M12 7h205.563v81.936H12z"/><path fill="url(#c)" fill-rule="nonzero" d="M273.944.528h128.808v128.754H273.944z"/><path fill="#FFF" fill-rule="nonzero" d="M277.599 4.182H399.09v121.44H277.599z"/><path fill="#4C5BE6" fill-rule="nonzero" d="M283 10h109.78v109.734H283z"/><path fill="url(#d)" fill-rule="nonzero" d="M298.824 153.42H469.35v128.754H298.824z"/><path fill="#FFF" fill-rule="nonzero" d="M302.486 157.08h163.209v121.44H302.486z"/><path fill="#4C5BE6" fill-rule="nonzero" d="M308 163h151.498v109.734H308z"/><g fill-rule="nonzero" opacity=".7"><path fill="url(#e)" d="M20.03.024V78.54H.24V.024h4.946z" opacity=".1" transform="translate(341.544 339)"/><path fill="url(#f)" d="M20.012.024V78.54H.216V.024h4.952z" opacity=".1" transform="translate(320.536 339)"/></g><path fill="url(#g)" fill-rule="nonzero" d="M58.77 38.466a11.464 11.464 0 0 0-4.55-12.156 33.886 33.886 0 0 1-3.048-1.968c-1.543-1.296-2.401-3.21-3.056-5.118-1.524-4.584-2.005-9.72-4.682-13.86C40.997 1.596 36.231.492 32.03.12c-1.531-.138-3.14-.21-4.544.426-2.347 1.062-3.464 3.828-3.566 6.396-.102 2.568.564 5.106.732 7.674.168 2.568-.288 5.4-2.184 7.128-1.897 1.728-4.61 1.944-7.12 2.292a47.166 47.166 0 0 0-9.652 2.4c-2.623.954-5.54 2.676-5.666 5.46-.102 2.28 1.735 4.092 3.121 5.904 2.581 3.39 3.872 7.854 3.002 12-.87 4.146-3.872 7.884-4.412 12.18a5.284 5.284 0 0 0 .432 3.216 5.887 5.887 0 0 0 1.633 1.728c1.62 1.254 3.427 2.256 4.958 3.6 3.193 2.826 4.928 6.936 6.26 10.992.126.39.24.786.367 1.2h-3.14C5.84 82.732.647 87.924.631 94.332c.016 6.408 5.209 11.6 11.62 11.616h31.375c6.412-.016 11.605-5.208 11.621-11.616-.016-6.408-5.21-11.6-11.62-11.616h-8.602c2.035-2.724 4.16-5.28 7.299-6.33 3.14-1.05 6.939-.432 9.4-2.622a7.36 7.36 0 0 0 2.13-4.2A12.595 12.595 0 0 0 52.48 61.2c-.99-1.764-2.437-3.366-2.749-5.364-.27-1.71.348-3.438 1.2-4.95 2.36-4.32 6.555-7.686 7.84-12.42z" opacity=".7" transform="translate(31.813 315)"/><path fill="#4DB6AC" fill-rule="nonzero" d="M63.747 317.634c-1.459-.132-3.001-.198-4.328.408-2.233 1.008-3.295 3.648-3.397 6.096-.102 2.448.54 4.86.696 7.308.156 2.448-.276 5.136-2.083 6.792-1.807 1.656-4.388 1.854-6.783 2.184a44.915 44.915 0 0 0-9.19 2.28c-2.497.906-5.276 2.55-5.402 5.202-.096 2.166 1.657 3.9 2.971 5.628 2.461 3.228 3.686 7.482 2.852 11.454-.835 3.972-3.686 7.506-4.202 11.598a5.032 5.032 0 0 0 .414 3.066c.4.648.93 1.207 1.555 1.644 1.542 1.2 3.265 2.148 4.724 3.438 3.043 2.694 4.688 6.6 5.96 10.464A84.739 84.739 0 0 1 50.47 406.8c2.623-1.686 6.003-1.662 8.812-3.03 5.96-2.922 7.96-11.4 14.25-13.482 3.001-.996 6.603-.414 8.95-2.496a7.013 7.013 0 0 0 2.029-4.02c.49-2.727.022-5.54-1.327-7.962-.942-1.68-2.317-3.204-2.617-5.106-.258-1.626.336-3.276 1.129-4.716 2.263-4.11 6.26-7.296 7.479-11.826a10.918 10.918 0 0 0-4.316-11.562c-1-.574-1.967-1.2-2.9-1.878-1.464-1.236-2.304-3.054-2.91-4.878-1.453-4.362-1.915-9.258-4.46-13.2-2.323-3.6-6.837-4.644-10.841-5.01z"/><path stroke="#535461" stroke-width=".6" d="M63.705 317.784s5.534 74.1-8.854 86.82" opacity=".6"/><rect width="52.006" height="22.122" x="33.83" y="396.312" fill="#4C5BE6" fill-rule="nonzero" rx="8.58"/><path stroke="#535461" stroke-width=".6" d="M33.278 346.542s14.142-1.65 31.411 8.85M64.413 364.236a36.545 36.545 0 0 1 24.737-15.48M34.659 376.68s19.604-3.324 28.614 2.208M62.174 386.49s10.265-4.656 21.808-.876" opacity=".6"/><g fill-rule="nonzero" opacity=".7"><path fill="url(#h)" d="M.498.024V78.54h19.797V.024h-4.953z" opacity=".1" transform="translate(130.855 339.6)"/><path fill="url(#i)" d="M.522.024V78.54h19.791V.024h-4.947z" opacity=".1" transform="translate(151.864 339.6)"/><path fill="url(#j)" d="M39.377 76.428L22.96 14.904l-.955-3.582L19.136.564.012 5.664l2.869 10.752.763 2.856 12.941 48.516.96 3.588 2.708 10.152z" opacity=".1" transform="translate(172.273 336.6)"/></g><path fill="#535461" fill-rule="nonzero" d="M133.382 341.544h18.794V416.1h-18.794z"/><path fill="#4C5BE6" fill-rule="nonzero" d="M133.382 352.11h18.794v3.522h-18.794zM133.382 402.594h18.794v3.522h-18.794z"/><path fill="#000" fill-rule="nonzero" d="M147.476 341.544h4.7V416.1h-4.7z" opacity=".1"/><path fill="#535461" fill-rule="nonzero" d="M153.347 341.544h18.794V416.1h-18.794z"/><path fill="#4C5BE6" fill-rule="nonzero" d="M153.347 352.11h18.794v3.522h-18.794zM153.347 402.594h18.794v3.522h-18.794z"/><path fill="#000" fill-rule="nonzero" d="M167.441 341.544h4.7V416.1h-4.7z" opacity=".1"/><path fill="#535461" fill-rule="nonzero" d="M172.226 344.077l18.16-4.842 19.208 72.04-18.16 4.841z"/><path fill="#4C5BE6" fill-rule="nonzero" d="M174.948 354.288l18.159-4.842.907 3.403-18.16 4.842zM187.964 403.068l18.16-4.842.906 3.403-18.16 4.842z"/><path fill="#000" fill-rule="nonzero" d="M185.853 340.448l4.541-1.211 19.209 72.039-4.542 1.21z" opacity=".1"/><path fill="#535461" fill-rule="nonzero" d="M359.054 416.1H340.26v-74.556h18.794z"/><path fill="#4C5BE6" fill-rule="nonzero" d="M359.054 355.638H340.26v-3.522h18.794zM359.054 406.122H340.26V402.6h18.794z"/><path fill="#000" fill-rule="nonzero" d="M344.96 416.1h-4.7v-74.556h4.7z" opacity=".1"/><path fill="#535461" fill-rule="nonzero" d="M339.09 416.1h-18.794v-74.556h18.794z"/><path fill="#4C5BE6" fill-rule="nonzero" d="M339.09 355.638h-18.794v-3.522h18.794zM339.09 406.122h-18.794V402.6h18.794z"/><path fill="#000" fill-rule="nonzero" d="M324.996 416.1h-4.7v-74.556h4.7z" opacity=".1"/><path fill="url(#k)" fill-rule="nonzero" d="M75.296 89.112H41.73l.444-3.774c9.484-8.508 15.606-31.2 15.606-31.2a3.14 3.14 0 0 0-.402.084c-5.582 1.122-9.52 3.408-12.287 6.15l1.2-10.038c17.522-3.774 24.467-26.94 24.467-26.94-11.183 2.478-18.152 6.318-22.48 9.954L49.983 18.6C61.826 22.662 74.09 1.074 74.09 1.074l-.468-.096.228-.15-.348.126c-13.091-2.82-20.09 4.662-22.365 7.77l.168-1.446c-.348.912-.685 1.82-1.009 2.724v.036a205.187 205.187 0 0 0-4.43 13.644s-.54-13.2-14.448-16.656c0 0 1.459 28.758 12.48 24.048a197.517 197.517 0 0 0-2.576 12.078c-.46 2.536-.86 5.014-1.2 7.434l-.066.072.066-.054v.192a187.471 187.471 0 0 0-.792 6.384c.216-3.99-.517-15.528-14.112-26.4 0 0-18.062 31.758 12.743 38.004l.204.174-.048-.144.282.06.126-1.632a171.072 171.072 0 0 0 .108 20.43c.03.468.066.924.096 1.368H4.784c-12.947 26.778 7.203 41.448 7.203 41.448h55.638c21.56-27.198 7.67-41.376 7.67-41.376z" opacity=".7" transform="translate(379.96 292.8)"/><path stroke="#535461" stroke-width="1.8" d="M419.806 392.082s-8.806-38.454 10.66-88.032" opacity=".6"/><path fill="#4C5BE6" fill-rule="nonzero" d="M385.501 380.496h68.14s13.44 17.142-7.418 42.6h-53.765s-19.466-17.58-6.957-42.6z"/><path fill="#4DB6AC" fill-rule="nonzero" d="M429.488 306.6s6.77-12.048 22.995-8.34c0 0-13.41 22.8-25.474 15.348l2.479-7.008zM425.19 319.38s-.522-12.318-13.962-15.564c0 0 1.41 26.874 12.059 22.47l1.903-6.906zM420.796 337.578s2.479-12.906 28.44-18.468c0 0-8.278 26.694-29.629 25.626l1.189-7.158z"/><path fill="#4DB6AC" fill-rule="nonzero" d="M418.725 352.062s2.731-13.494-13.494-26.004c0 0-17.63 29.958 12.738 35.598l.756-9.594z"/><path fill="#4DB6AC" fill-rule="nonzero" d="M418.209 370.614s-1.885-19.074 18.524-22.782c0 0-7.45 26.634-18.554 31.386l.03-8.604z"/><path stroke="#535461" stroke-width=".6" d="M427.219 313.8s17.611-13.434 25.03-15.75M419.571 344.592s21.321-22.704 29.665-25.482M411.228 303.822s12.977 17.604 12.053 22.242M405.201 326.058s6.951 31.506 12.516 35.676M418.179 379.338s11.123-30.6 18.542-31.506" opacity=".3"/><path fill="#000" fill-rule="nonzero" d="M453.642 380.496H385.5c-.156.312-.3.6-.45.924h66.268s13.11 16.728-6.675 41.7h1.573c20.864-25.482 7.425-42.624 7.425-42.624z" opacity=".1"/><path fill="#E0E0E0" fill-rule="nonzero" d="M0 415.44h472.502v16.008H0zM20.018 431.448h432.459V438H20.018z"/><path fill="#000" fill-rule="nonzero" d="M20.018 431.448h432.459v2.184H20.018z" opacity=".1"/></g><path fill="#FB7E14" d="M135.786 143v18.357h15.088l6.196 19.166L111 252.061h22.631l32.869-48.592L188.053 258 222 247.202l-5.388-16.737-15.627 4.859L164.345 143z"/><g fill-rule="nonzero"><path fill="#E55B2D" d="M390.334 187v13.819L414 214.637V200.82L390.334 187zM343 200.819v13.818l11.833 6.908v-13.817L343 200.818zm35.5 6.909l-11.834 6.91v41.453L378.5 263v-27.636l11.835 6.91v-13.82l-11.835-6.909v-13.817z"/><path fill="#ED8E24" d="M390.5 187L355 207.728v13.817l23.666-13.817v13.817l11.834-6.908V187zm35.5 6.91l-11.834 6.909v13.818L426 207.728v-13.819zm-23.667 27.635l-11.833 6.91v13.818l11.833-6.909v-13.819zM390.5 242.273l-11.834-6.909V263l11.834-6.91v-13.817z"/><path fill="#F8BF3C" d="M390.428 173L343 200.5l11.857 6.875 35.571-20.626 23.714 13.751L426 193.625 390.428 173zm0 41.25l-11.858 6.875L390.428 228l11.857-6.875-11.857-6.874z"/></g><g fill-rule="nonzero"><path fill="#F7DF1E" d="M301 27h75v75h-75z"/><path fill="#000" d="M351.381 85.594c1.51 2.467 3.476 4.28 6.952 4.28 2.92 0 4.786-1.46 4.786-3.476 0-2.417-1.917-3.273-5.13-4.679l-1.763-.756c-5.086-2.167-8.464-4.88-8.464-10.619 0-5.286 4.027-9.31 10.321-9.31 4.481 0 7.703 1.56 10.024 5.643l-5.488 3.524c-1.208-2.166-2.512-3.02-4.536-3.02-2.064 0-3.372 1.31-3.372 3.02 0 2.114 1.31 2.97 4.333 4.28l1.762.755c5.988 2.568 9.369 5.185 9.369 11.071 0 6.345-4.985 9.822-11.679 9.822-6.545 0-10.773-3.12-12.842-7.208l5.727-3.327zm-24.896.61c1.107 1.965 2.114 3.626 4.535 3.626 2.316 0 3.776-.906 3.776-4.429V61.437h7.048v24.06c0 7.297-4.279 10.618-10.524 10.618-5.643 0-8.91-2.92-10.572-6.437l5.737-3.473z"/></g><g fill-rule="nonzero"><path fill="#326CE5" d="M48.92 23.347c-.461.027-.912.145-1.325.347l-17.92 8.455a3.37 3.37 0 0 0-1.85 2.278L23.434 53.4a3.3 3.3 0 0 0 .468 2.587c.06.093.125.182.193.267L36.488 71.48a3.449 3.449 0 0 0 2.674 1.247h19.873a3.449 3.449 0 0 0 2.677-1.26l12.385-15.23c.65-.796.893-1.843.66-2.84l-4.42-18.99a3.37 3.37 0 0 0-1.851-2.278L50.58 23.694a3.481 3.481 0 0 0-1.662-.347z"/><path fill="#FFF" stroke="#FFF" stroke-width=".25" d="M49.098 29.813a1.126 1.126 0 0 0-1.054 1.177V31.288c.03.338.08.675.148 1.007.098.636.134 1.28.105 1.924a1.155 1.155 0 0 1-.351.548l-.025.448a14.1 14.1 0 0 0-1.936.295 13.824 13.824 0 0 0-7.006 3.952l-.386-.271a.856.856 0 0 1-.636-.063 9.966 9.966 0 0 1-1.444-1.288 8.866 8.866 0 0 0-.703-.74 7.087 7.087 0 0 0-.239-.187 1.284 1.284 0 0 0-.745-.278 1.038 1.038 0 0 0-.853.375 1.113 1.113 0 0 0 .263 1.563c.07.055.158.128.222.177.286.188.582.36.888.514.57.313 1.108.68 1.606 1.097.128.18.202.392.214.611l.352.302a13.574 13.574 0 0 0-2.186 9.552l-.45.129a1.477 1.477 0 0 1-.46.458c-.628.166-1.272.27-1.921.313a9.071 9.071 0 0 0-1.03.08l-.285.066h-.031a1.072 1.072 0 0 0-.876.709c-.132.381-.034.804.253 1.09.287.287.713.389 1.1.263h.022l.291-.031c.328-.098.65-.214.963-.347.604-.24 1.23-.422 1.87-.542.22.013.434.088.614.215l.467-.08a13.813 13.813 0 0 0 6.18 7.64l-.196.405c.09.186.124.394.095.598-.266.608-.591 1.19-.97 1.736-.208.271-.4.554-.576.847-.042.08-.095.201-.137.285-.205.346-.195.778.026 1.115a1.08 1.08 0 0 0 1.91-.209c.042-.083.098-.191.133-.27.122-.319.225-.643.31-.973.284-.695.439-1.441.829-1.903a.872.872 0 0 1 .46-.222l.242-.434a14.022 14.022 0 0 0 9.89.024l.215.406c.22.034.416.151.548.327.303.569.55 1.165.735 1.781.085.33.19.654.312.972.036.08.092.188.134.271.141.377.486.642.89.686a1.08 1.08 0 0 0 1.02-.477c.22-.337.231-.768.026-1.115-.042-.083-.099-.205-.14-.285a8.824 8.824 0 0 0-.577-.844 9.863 9.863 0 0 1-.949-1.68.822.822 0 0 1 .11-.636 3.615 3.615 0 0 1-.18-.427 13.81 13.81 0 0 0 6.152-7.666l.457.08a.853.853 0 0 1 .6-.22c.64.12 1.266.302 1.87.542.314.141.635.264.963.369.077.02.19.038.277.059h.021c.388.126.814.024 1.101-.263.287-.287.385-.709.253-1.09a1.072 1.072 0 0 0-.876-.71c-.091-.02-.221-.055-.312-.073a9.071 9.071 0 0 0-1.03-.08 10.112 10.112 0 0 1-1.922-.312 1.195 1.195 0 0 1-.464-.459l-.432-.125a13.63 13.63 0 0 0-2.23-9.53l.379-.348a.83.83 0 0 1 .2-.6c.494-.42 1.028-.791 1.595-1.108.306-.155.603-.326.889-.514.07-.052.162-.129.235-.188a1.062 1.062 0 0 0-.214-1.911 1.088 1.088 0 0 0-1.12.255 7.087 7.087 0 0 0-.24.188c-.248.233-.483.48-.702.74-.425.48-.896.917-1.406 1.308a1.208 1.208 0 0 1-.65.07l-.407.288a14.12 14.12 0 0 0-8.907-4.247c0-.142-.021-.396-.025-.472a.836.836 0 0 1-.351-.528 9.795 9.795 0 0 1 .123-1.92c.069-.332.118-.669.148-1.007v-.302a1.126 1.126 0 0 0-1.055-1.177l-.02-.003zm-1.342 8.215l-.32 5.555h-.024a.934.934 0 0 1-.534.802.955.955 0 0 1-.966-.086l-4.61-3.23a11.079 11.079 0 0 1 5.316-2.86c.376-.08.756-.14 1.138-.181zm2.685 0a11.184 11.184 0 0 1 6.419 3.059l-4.568 3.208a.954.954 0 0 1-.995.115.933.933 0 0 1-.54-.834l-.316-5.548zM39.626 43.16l4.216 3.718v.025a.927.927 0 0 1 .3.912.939.939 0 0 1-.672.692v.017l-5.411 1.539a10.803 10.803 0 0 1 1.567-6.903zm18.913 0a11.007 11.007 0 0 1 1.613 6.882L54.734 48.5v-.02a.939.939 0 0 1-.672-.693.927.927 0 0 1 .3-.912l4.184-3.701-.007-.014zm-10.305 4.007h1.725l1.054 1.323-.383 1.652-1.55.736-1.552-.736-.366-1.656 1.072-1.32zm5.527 4.514a.953.953 0 0 1 .218 0l5.58.93a10.944 10.944 0 0 1-4.467 5.556l-2.157-5.16a.928.928 0 0 1 .068-.861.95.95 0 0 1 .75-.441l.008-.024zm-9.37.024a.948.948 0 0 1 .778.426c.171.261.2.59.075.876v.02l-2.143 5.119a10.99 10.99 0 0 1-4.438-5.497l5.53-.927a.967.967 0 0 1 .187 0l.01-.017zm4.672 2.243a.954.954 0 0 1 .865.49h.02l2.727 4.86a11.207 11.207 0 0 1-7.136-.007l2.72-4.86a.947.947 0 0 1 .804-.47v-.013z"/><path fill="#FFF" d="M90.686 48.023c.376-.4.741-.796 1.095-1.187l.999-1.116c.312-.353.58-.66.805-.923h4.263c-.852.942-1.682 1.84-2.492 2.693a69.213 69.213 0 0 1-2.658 2.647c.528.468 1.024.968 1.485 1.498.513.58 1.008 1.176 1.485 1.789.478.612.919 1.231 1.322 1.856.401.62.738 1.185 1.01 1.695h-4.121c-.248-.403-.54-.849-.877-1.338a41.527 41.527 0 0 0-1.035-1.437 27.028 27.028 0 0 0-1.166-1.406 9.634 9.634 0 0 0-1.214-1.137V57H86V39.558L89.587 39v10.175l1.099-1.152zM110 57.27c-.78.213-1.573.378-2.374.496a19.58 19.58 0 0 1-3.051.23 7.27 7.27 0 0 1-2.703-.435 4.112 4.112 0 0 1-1.709-1.219 4.746 4.746 0 0 1-.897-1.864A10.034 10.034 0 0 1 99 52.085v-7.081h3.612v6.638c0 1.16.153 1.998.46 2.512.307.514.88.772 1.72.772a12.204 12.204 0 0 0 1.596-.123V45H110v12.27zM124 50.702a7.105 7.105 0 0 1-.455 2.601 5.445 5.445 0 0 1-1.313 1.985 5.83 5.83 0 0 1-2.108 1.267 8.46 8.46 0 0 1-2.845.444c-.442 0-.903-.019-1.385-.056a27.394 27.394 0 0 1-1.423-.148 20.303 20.303 0 0 1-1.336-.218 16.464 16.464 0 0 1-1.135-.264V39.549l3.655-.549v5.983a7.025 7.025 0 0 1 2.698-.524 6.205 6.205 0 0 1 2.43.443c.688.286 1.294.72 1.767 1.267a5.55 5.55 0 0 1 1.078 1.975c.256.832.38 1.693.371 2.558zm-3.728-.091c0-2.19-.867-3.284-2.6-3.284a4.62 4.62 0 0 0-1.116.137c-.317.074-.62.193-.897.352v6.17c.18.03.408.058.685.081.278.024.58.035.908.035.882.057 1.735-.303 2.27-.957a3.95 3.95 0 0 0 .75-2.534zM125.002 51.579a7.313 7.313 0 0 1 .52-2.875 6.136 6.136 0 0 1 1.373-2.053 5.73 5.73 0 0 1 1.956-1.227 6.31 6.31 0 0 1 2.272-.424c1.814 0 3.247.536 4.299 1.608 1.052 1.071 1.578 2.647 1.578 4.728 0 .203-.007.426-.022.67a20.21 20.21 0 0 1-.05.644h-8.208a2.308 2.308 0 0 0 1.046 1.713 4.311 4.311 0 0 0 2.477.634c.657 0 1.312-.06 1.957-.178a7.565 7.565 0 0 0 1.567-.434l.487 2.838c-.25.115-.51.21-.776.283-.355.1-.715.183-1.08.246-.397.07-.821.13-1.274.177-.452.047-.906.07-1.36.07a8.307 8.307 0 0 1-2.999-.493 5.86 5.86 0 0 1-2.114-1.35 5.315 5.315 0 0 1-1.237-2.032 7.788 7.788 0 0 1-.412-2.545zm8.5-1.336a3.51 3.51 0 0 0-.157-.87 2.15 2.15 0 0 0-.412-.749 2.193 2.193 0 0 0-.705-.54 2.367 2.367 0 0 0-1.057-.21c-.36-.008-.716.06-1.045.2a2.158 2.158 0 0 0-.727.529c-.199.225-.351.484-.45.764-.105.285-.183.58-.233.88h4.787v-.004zM145.49 48.466c-.274-.08-.59-.165-.95-.255a4.713 4.713 0 0 0-1.877-.075 3.5 3.5 0 0 0-.605.135V58H139V45.944a16.26 16.26 0 0 1 1.925-.64 9.526 9.526 0 0 1 2.492-.303 5.7 5.7 0 0 1 .595.037 9.88 9.88 0 0 1 1.393.243c.203.047.402.116.595.206l-.51 2.979zM149 45.73c.78-.212 1.572-.378 2.372-.496 1.01-.156 2.03-.234 3.051-.23a7.447 7.447 0 0 1 2.708.424 4.06 4.06 0 0 1 1.707 1.197c.43.537.737 1.164.896 1.833a9.76 9.76 0 0 1 .265 2.367V58h-3.615v-6.743c0-1.16-.153-1.981-.46-2.463-.306-.482-.878-.723-1.717-.723a12.179 12.179 0 0 0-1.595.123V58h-3.608V45.73H149zM162.002 51.579a7.308 7.308 0 0 1 .521-2.875 6.136 6.136 0 0 1 1.374-2.053 5.74 5.74 0 0 1 1.944-1.227 6.329 6.329 0 0 1 2.274-.424c1.817 0 3.252.536 4.305 1.608 1.053 1.071 1.58 2.647 1.58 4.728 0 .203-.009.426-.026.67-.018.244-.034.459-.05.644h-8.218c.065.694.45 1.323 1.047 1.713a4.321 4.321 0 0 0 2.48.634c.658 0 1.314-.06 1.96-.178a7.586 7.586 0 0 0 1.569-.434l.487 2.838c-.25.115-.51.21-.776.283-.356.1-.717.183-1.081.246-.398.07-.823.13-1.276.177-.453.047-.908.07-1.363.07a8.327 8.327 0 0 1-3.002-.493 5.868 5.868 0 0 1-2.117-1.35 5.311 5.311 0 0 1-1.23-2.043 7.781 7.781 0 0 1-.402-2.534zm8.511-1.336a3.505 3.505 0 0 0-.157-.87 2.148 2.148 0 0 0-.413-.749 2.196 2.196 0 0 0-.706-.54 2.372 2.372 0 0 0-1.058-.21c-.36-.008-.717.06-1.047.2a2.16 2.16 0 0 0-.728.529 2.34 2.34 0 0 0-.45.764c-.106.285-.183.58-.233.88h4.792v-.004zM175.004 42.557L178.42 42v3.568h4.103v2.854h-4.103v4.28c-.028.602.103 1.2.379 1.735.252.43.76.645 1.524.645a6.473 6.473 0 0 0 2.196-.392l.481 2.683c-.447.18-.907.327-1.376.439a7.954 7.954 0 0 1-1.856.185 6.063 6.063 0 0 1-2.313-.382 3.63 3.63 0 0 1-1.468-1.07 3.968 3.968 0 0 1-.767-1.652 9.833 9.833 0 0 1-.22-2.14V42.557h.004zM184.002 51.584a7.328 7.328 0 0 1 .52-2.877 6.142 6.142 0 0 1 1.373-2.055 5.732 5.732 0 0 1 1.956-1.228 6.31 6.31 0 0 1 2.272-.424c1.814 0 3.247.536 4.299 1.609 1.052 1.073 1.578 2.646 1.578 4.722 0 .203-.009.426-.026.67l-.049.645h-8.209a2.31 2.31 0 0 0 1.05 1.714 4.309 4.309 0 0 0 2.477.634c.657 0 1.312-.059 1.957-.177a7.564 7.564 0 0 0 1.567-.435l.487 2.84c-.25.115-.51.21-.776.283-.355.101-.715.184-1.08.247-.397.07-.821.129-1.274.177-.452.047-.906.07-1.36.07a8.3 8.3 0 0 1-2.999-.494 5.86 5.86 0 0 1-2.114-1.351 5.323 5.323 0 0 1-1.252-2.033 7.802 7.802 0 0 1-.397-2.537zm8.512-1.333a3.515 3.515 0 0 0-.157-.87 2.151 2.151 0 0 0-.413-.75 2.194 2.194 0 0 0-.704-.54 2.365 2.365 0 0 0-1.057-.21c-.36-.01-.717.059-1.046.2-.285.12-.54.3-.746.525-.198.225-.35.484-.45.764-.105.286-.183.581-.232.88h4.805zM202.028 55.142a3.14 3.14 0 0 0 1.29-.188.733.733 0 0 0 .376-.724.89.89 0 0 0-.49-.724 9.084 9.084 0 0 0-1.488-.724c-.48-.186-.952-.397-1.412-.633-.396-.2-.76-.466-1.077-.786a3.192 3.192 0 0 1-.685-1.086 4.235 4.235 0 0 1-.244-1.523c-.039-1.07.416-2.093 1.22-2.744.814-.673 1.932-1.01 3.353-1.01.69-.003 1.38.063 2.057.2.53.097 1.05.243 1.557.434l-.576 2.721c-.412-.144-.83-.265-1.255-.362a6.488 6.488 0 0 0-1.522-.162c-1.038 0-1.556.305-1.556.915a.991.991 0 0 0 .065.362c.06.129.153.237.267.315.173.126.355.236.545.33.229.118.521.248.878.39.618.234 1.22.515 1.8.84.417.231.796.533 1.12.894.266.305.462.669.577 1.064.118.442.174.899.168 1.358.056 1.097-.437 2.146-1.3 2.761-.866.623-2.09.935-3.675.938a10.03 10.03 0 0 1-2.588-.283c-.488-.12-.967-.277-1.433-.47l.555-2.838a10.4 10.4 0 0 0 1.732.55 7.984 7.984 0 0 0 1.741.185z"/></g></g></svg>
