<svg xmlns="http://www.w3.org/2000/svg" viewBox="0 0 463 446"><defs><filter id="a" width="103.1%" height="103.2%" x="-1.5%" y="-1.1%" filterUnits="objectBoundingBox"><feOffset dy="2" in="SourceAlpha" result="shadowOffsetOuter1"/><feGaussianBlur in="shadowOffsetOuter1" result="shadowBlurOuter1" stdDeviation="2"/><feColorMatrix in="shadowBlurOuter1" result="shadowMatrixOuter1" values="0 0 0 0 0 0 0 0 0 0 0 0 0 0 0 0 0 0 0.1 0"/><feMerge><feMergeNode in="shadowMatrixOuter1"/><feMergeNode in="SourceGraphic"/></feMerge></filter></defs><g fill="none" fill-rule="nonzero" filter="url(#a)" transform="translate(4 2)"><path fill="#4C5BE6" d="M0 0h202v12H0zM0 112h202v12H0z"/><path fill="#717A85" d="M0 28h303v12H0zM0 172h430v12H0zM0 282h400v12H0zM0 228h445v12H0zM0 200h121v12H0zM0 256h60v12H0zM186 256h80v12h-80zM392 256h63v12h-63zM239 200h216v12H239z"/><path fill="#FD5A57" d="M129 200h101v12H129z"/><path fill="#4C5BE6" d="M68 256h110v12H68z"/><path fill="#E6964C" d="M274 256h110v12H274z"/><path fill="#717A85" d="M0 56h270v12H0zM0 84h303v12H0zM0 342h270v12H0z"/><path fill="#FD5A57" d="M0 370h180v12H0z"/><path fill="#717A85" d="M0 398h210v12H0zM0 426h260v12H0z"/></g></svg>