<svg xmlns="http://www.w3.org/2000/svg" width="212" height="152" viewBox="0 0 212 152"><defs><linearGradient id="a" x1="50%" x2="50%" y1="100%" y2=".036%"><stop offset="0%" stop-color="gray" stop-opacity=".25"/><stop offset="54%" stop-color="gray" stop-opacity=".12"/><stop offset="100%" stop-color="gray" stop-opacity=".1"/></linearGradient><linearGradient id="b" x1="74815%" x2="74815%" y1="56716%" y2="54413%"><stop offset="0%" stop-color="gray" stop-opacity=".25"/><stop offset="54%" stop-color="gray" stop-opacity=".12"/><stop offset="100%" stop-color="gray" stop-opacity=".1"/></linearGradient><linearGradient id="c" x1="55693%" x2="55693%" y1="70716%" y2="4289%"><stop offset="0%" stop-color="gray" stop-opacity=".25"/><stop offset="54%" stop-color="gray" stop-opacity=".12"/><stop offset="100%" stop-color="gray" stop-opacity=".1"/></linearGradient><linearGradient id="d" x1="50.042%" x2="50.042%" y1="0%" y2="100%"><stop offset="0%" stop-color="#E0E0E0"/><stop offset="31%" stop-color="#FCCC63"/><stop offset="77%" stop-color="#F55F44"/></linearGradient><linearGradient id="e" x1="53405%" x2="53405%" y1="62814%" y2="69254%"><stop offset="0%" stop-color="#E0E0E0"/><stop offset="31%" stop-color="#FCCC63"/><stop offset="77%" stop-color="#F55F44"/></linearGradient><linearGradient id="f" x1="58235%" x2="58235%" y1="62814%" y2="69254%"><stop offset="0%" stop-color="#E0E0E0"/><stop offset="31%" stop-color="#FCCC63"/><stop offset="77%" stop-color="#F55F44"/></linearGradient><linearGradient id="g" x1="66030%" x2="66030%" y1="62814%" y2="69254%"><stop offset="0%" stop-color="#E0E0E0"/><stop offset="31%" stop-color="#FCCC63"/><stop offset="77%" stop-color="#F55F44"/></linearGradient><linearGradient id="h" x1="76605%" x2="76605%" y1="40923%" y2="34057%"><stop offset="0%" stop-color="gray" stop-opacity=".25"/><stop offset="54%" stop-color="gray" stop-opacity=".12"/><stop offset="100%" stop-color="gray" stop-opacity=".1"/></linearGradient><linearGradient id="i" x1="33105%" x2="33105%" y1="57785%" y2="52994%"><stop offset="0%" stop-color="gray" stop-opacity=".25"/><stop offset="54%" stop-color="gray" stop-opacity=".12"/><stop offset="100%" stop-color="gray" stop-opacity=".1"/></linearGradient><linearGradient id="j" x1="108971%" x2="108971%" y1="39113%" y2="29142%"><stop offset="0%" stop-color="gray" stop-opacity=".25"/><stop offset="54%" stop-color="gray" stop-opacity=".12"/><stop offset="100%" stop-color="gray" stop-opacity=".1"/></linearGradient><linearGradient id="k" x1="108971%" x2="108971%" y1="44608%" y2="30308%"><stop offset="0%" stop-color="gray" stop-opacity=".25"/><stop offset="54%" stop-color="gray" stop-opacity=".12"/><stop offset="100%" stop-color="gray" stop-opacity=".1"/></linearGradient><linearGradient id="l" x1="109001%" x2="109001%" y1="30891%" y2="25934%"><stop offset="0%" stop-color="gray" stop-opacity=".25"/><stop offset="54%" stop-color="gray" stop-opacity=".12"/><stop offset="100%" stop-color="gray" stop-opacity=".1"/></linearGradient><linearGradient id="m" x1="107415%" x2="107415%" y1="45193%" y2="43370%"><stop offset="0%" stop-color="gray" stop-opacity=".25"/><stop offset="54%" stop-color="gray" stop-opacity=".12"/><stop offset="100%" stop-color="gray" stop-opacity=".1"/></linearGradient><linearGradient id="n" x1="110564%" x2="110564%" y1="45193%" y2="43370%"><stop offset="0%" stop-color="gray" stop-opacity=".25"/><stop offset="54%" stop-color="gray" stop-opacity=".12"/><stop offset="100%" stop-color="gray" stop-opacity=".1"/></linearGradient><linearGradient id="o" x1="109030%" x2="109030%" y1="36606%" y2="32524%"><stop offset="0%" stop-color="gray" stop-opacity=".25"/><stop offset="54%" stop-color="gray" stop-opacity=".12"/><stop offset="100%" stop-color="gray" stop-opacity=".1"/></linearGradient></defs><g fill="none" fill-rule="evenodd"><path fill="#6C63FF" fill-rule="nonzero" d="M185.011 132.111a26.11 26.11 0 0 1-5.166-.067c-18.86-2.087-44.54-1.492-65.476 11.478-28.952 17.936-74.327 2.58-94.342-5.773-15.294-6.38-23.235-22.007-18.464-36.676.067-.206.137-.413.209-.62 3-8.718 8.924-15.54 16.26-19.156 6.392-3.152 15.727-9.734 19.88-22.38 1.716-5.223 4.07-10.133 7.127-14.417C53.224 33.028 70.36 15.965 99.83 16.07a47.504 47.504 0 0 1 15.184 2.57c10.766 3.67 20.49 11.129 27.906 21.466 4.732 6.597 11.822 12.726 21.974 13.227 14.088.698 27.533 7.257 37.62 18.93.29.336.578.674.865 1.015 17.958 21.38 5.485 56.747-18.369 58.832z"/><circle cx="2.697" cy="2.669" r="2.574" fill="url(#a)" fill-rule="nonzero" opacity=".7" transform="translate(49.237 124.77)"/><circle cx="51.934" cy="127.439" r="2.458" fill="#000" fill-rule="nonzero" opacity=".2"/><circle cx="38.067" cy="77.238" r="1" fill="#FFF" fill-rule="nonzero"/><circle cx="105.954" cy="132.443" r="1" fill="#FFF" fill-rule="nonzero"/><circle cx="65.856" cy="137.292" r="1" fill="#FFF" fill-rule="nonzero"/><circle cx="183.54" cy="111.555" r="1" fill="#FFF" fill-rule="nonzero"/><circle cx="153.14" cy="63.81" r="1" fill="#FFF" fill-rule="nonzero"/><circle cx="196.222" cy="87.123" r="1" fill="#FFF" fill-rule="nonzero"/><circle cx="54.852" cy="46.092" r="1" fill="#FFF" fill-rule="nonzero"/><path fill="#FFF" fill-rule="nonzero" d="M28.71 110.449h-.846v-.847h-.345v.847h-.847v.345h.847v.845h.345v-.845h.846zM49.972 110.076h-.847v-.847h-.345v.847h-.847v.345h.847v.845h.345v-.845h.847zM80.372 127.234h-.847v-.846h-.345v.846h-.847v.345h.847v.845h.345v-.845h.847zM122.713 24.378h-.386v-.386h-.156v.386h-.386v.156h.386v.387h.156v-.387h.386zM177.732 59.813h-.386v-.386h-.157v.386h-.386v.157h.386v.386h.157v-.386h.386zM145.28 82.94h-.386v-.386h-.156v.386h-.386v.156h.386v.387h.156v-.387h.386zM13.236 97.487h-.386v-.386h-.157v.386h-.386v.157h.386v.386h.157v-.386h.386zM29.089 129.193h-.386v-.387h-.157v.387h-.386v.156h.386v.386h.157v-.386h.386zM78.885 29.04h-.386v-.386h-.157v.386h-.386v.157h.386v.386h.157v-.386h.386zM55.386 84.805H55v-.386h-.157v.386h-.386v.156h.386v.387H55v-.387h.386zM60.421 68.766h-.386v-.387h-.156v.387h-.386v.156h.386v.386h.156v-.386h.386z"/><circle cx="2.266" cy="2.173" r="2.149" fill="url(#b)" fill-rule="nonzero" opacity=".7" transform="translate(137.453 101.458)"/><circle cx="139.719" cy="103.63" r="1.99" fill="#000" fill-rule="nonzero" opacity=".2"/><circle cx="145.077" cy="117.639" r="2.225" fill="#000" fill-rule="nonzero" opacity=".2"/><path fill="url(#c)" fill-rule="nonzero" d="M54.267 57.262a28.874 28.874 0 0 0-3.264-13.428c-1.024-1.947-1.958-3.156-2.676-3.9a1.912 1.912 0 0 0-2.192-.421c-.29.102-.553.271-.766.494-.972 1.007-1.85 2.339-2.611 3.754a28.988 28.988 0 0 0-3.426 13.801v2.89H37.48V26.876c0-7.035-1.574-13.975-4.663-20.13-1.462-2.916-2.797-4.729-3.821-5.842a2.65 2.65 0 0 0-3.982 0c-1.388 1.508-2.641 3.504-3.73 5.624-3.244 6.29-4.89 13.429-4.89 20.669v33.238h-1.6V57.41a28.988 28.988 0 0 0-3.427-13.8c-.766-1.416-1.645-2.748-2.61-3.755a1.914 1.914 0 0 0-2.239-.409l.067.038a1.979 1.979 0 0 0-.624.436c-.72.746-1.653 1.953-2.677 3.9A28.874 28.874 0 0 0 .021 57.247v50.17h5.716l-.632 4.132v12.334h4.673v-12.334l-.624-4.125h5.632V61.73h1.6v45.495h4.564l-.655 4.323v12.334h4.674v-12.334l-.655-4.328h6.155l-.658 4.328v12.334h4.673v-12.334l-.654-4.328h3.644V61.736h1.852V107.5h1.503v-.07h4.965l-.625 4.12v12.334h4.674v-12.334l-.625-4.125h5.049V57.262z" opacity=".7" transform="translate(70.871)"/><path fill="#535461" fill-rule="nonzero" d="M81.576 109.151h-4.425l.79-5.373h2.845z"/><path fill="#000" fill-rule="nonzero" d="M77.721 105.911h3.284l-.22-1.5h-2.844z" opacity=".1"/><path fill="#535461" fill-rule="nonzero" d="M119.502 109.151h-4.424l.789-5.373h2.846z"/><path fill="#000" fill-rule="nonzero" d="M115.647 105.911h3.286l-.22-1.5h-2.846z" opacity=".1"/><path fill="#535461" fill-rule="nonzero" d="M95.956 109.151h-4.424l.789-5.373h2.846z"/><path fill="#000" fill-rule="nonzero" d="M92.101 105.911h3.286l-.22-1.5h-2.846z" opacity=".1"/><path fill="#535461" fill-rule="nonzero" d="M104.964 109.151h-4.424l.789-5.373h2.844z"/><path fill="#000" fill-rule="nonzero" d="M101.109 105.911h3.286l-.222-1.5h-2.844z" opacity=".1"/><path fill="#535461" fill-rule="nonzero" d="M81.576 59.373h31.605v1.264H81.576z"/><path fill="#E0E0E0" fill-rule="nonzero" d="M118.066 39.403a1.781 1.781 0 0 0-2.641 0c-.92.98-1.751 2.277-2.477 3.655a28.878 28.878 0 0 0-3.243 13.428v48.648h13.988V56.28a28.772 28.772 0 0 0-3.09-13.081c-.972-1.895-1.856-3.081-2.537-3.797zM77.955 39.403a1.781 1.781 0 0 1 2.64 0c.92.98 1.752 2.277 2.477 3.655a28.878 28.878 0 0 1 3.243 13.428v48.648H72.328V56.28a28.772 28.772 0 0 1 3.09-13.081c.972-1.895 1.856-3.081 2.537-3.797z"/><path fill="#535461" fill-rule="nonzero" d="M72.41 57.318l3.32.017v4.092h-3.32zM82.998 57.318l3.319.017v4.092h-3.319zM109.705 57.318l3.318.017v4.092h-3.318zM120.293 57.318l3.318.017v4.092h-3.318z"/><path fill="#000" fill-rule="nonzero" d="M83.074 42.995c-.725-1.379-1.557-2.675-2.477-3.656a1.776 1.776 0 0 0-2.113-.397c.2.1.38.234.534.397.92.981 1.75 2.277 2.476 3.656a28.878 28.878 0 0 1 3.244 13.428v48.64h1.58V56.425a28.878 28.878 0 0 0-3.244-13.43zM114.213 43.129c.725-1.378 1.557-2.675 2.476-3.656.173-.185.38-.333.612-.436a1.78 1.78 0 0 0-2.033.436c-.92.981-1.751 2.278-2.477 3.656a28.878 28.878 0 0 0-3.243 13.428v48.651h1.423V56.561a28.878 28.878 0 0 1 3.242-13.432z" opacity=".1"/><path fill="url(#d)" fill-rule="nonzero" d="M79.424 121.162h-.121a2.152 2.152 0 0 1-2.152-2.153v-9.858h4.424v9.858a2.152 2.152 0 0 1-2.15 2.153z"/><path fill="url(#e)" fill-rule="nonzero" d="M93.805 121.162h-.12a2.152 2.152 0 0 1-2.153-2.153v-9.858h4.424v9.858a2.152 2.152 0 0 1-2.15 2.153z"/><path fill="url(#f)" fill-rule="nonzero" d="M102.812 121.162h-.125a2.152 2.152 0 0 1-2.147-2.153v-9.858h4.424v9.858a2.152 2.152 0 0 1-2.152 2.153z"/><path fill="url(#g)" fill-rule="nonzero" d="M117.351 121.162h-.117a2.152 2.152 0 0 1-2.156-2.153v-9.858h4.424v9.858a2.152 2.152 0 0 1-2.15 2.153z"/><path fill="#EEE" fill-rule="nonzero" d="M99.766 1.259a2.462 2.462 0 0 0-3.77 0c-1.305 1.47-2.5 3.413-3.543 5.477-3.071 6.125-4.629 13.078-4.629 20.128v78.072h19.956V26.551c0-6.85-1.492-13.615-4.409-19.602-1.37-2.84-2.633-4.607-3.605-5.69z"/><rect width="10.414" height="4.773" x="92.466" y="9.931" fill="#535461" fill-rule="nonzero" rx="2.386"/><path fill="#000" fill-rule="nonzero" d="M87.933 29.532h19.753v1H87.933z" opacity=".1"/><path fill="url(#h)" fill-rule="nonzero" d="M142.123 58.064a6.403 6.403 0 1 0-5.12 10.26c.136 0 .273 0 .405-.014a6.403 6.403 0 0 0 4.705-10.244l.01-.002z"/><path fill="#000" fill-rule="nonzero" d="M143.065 61.92a6.052 6.052 0 0 1-5.67 6.04c-.127 0-.256.013-.384.013a6.052 6.052 0 1 1 3.027-11.295 6.11 6.11 0 0 1 1.803 1.597 6.02 6.02 0 0 1 1.224 3.646z" opacity=".2"/><path fill="#000" fill-rule="nonzero" d="M135.522 58.08a6.587 6.587 0 0 0-.902.476 1.429 1.429 0 0 0-.483.433.56.56 0 0 0-.013.616c.147.2.43.233.68.246a1.29 1.29 0 0 0 1.237-.409l.52-.472c.187-.164.373-.39.3-.619a.548.548 0 0 0-.441-.298 1.835 1.835 0 0 0-1.306.23" opacity=".1"/><circle cx=".373" cy=".339" r="1" fill="#000" fill-rule="nonzero" opacity=".1" transform="translate(132.977 63.97)"/><circle cx="1.253" cy="1.306" r="1.168" fill="#000" fill-rule="nonzero" opacity=".1" transform="translate(138.572 60.987)"/><path fill="#000" fill-rule="nonzero" d="M141.852 58.275a1.593 1.593 0 1 1-1.803-1.597 6.11 6.11 0 0 1 1.803 1.597zM141.96 65.405a6.037 6.037 0 0 1-4.563 2.555c0-.082-.011-.168-.011-.252a2.867 2.867 0 0 1 4.576-2.301l-.001-.002z" opacity=".1"/><path fill="url(#i)" fill-rule="nonzero" d="M59.45 92.614a4.51 4.51 0 0 0-1.332-1.179 4.476 4.476 0 1 0-2.238 8.337c.095 0 .187 0 .284-.01a4.467 4.467 0 0 0 3.282-7.148h.004z"/><path fill="#000" fill-rule="nonzero" d="M60.106 95.305a4.222 4.222 0 0 1-3.956 4.213h-.266a4.222 4.222 0 1 1 2.111-7.88c.49.286.917.666 1.257 1.12a4.2 4.2 0 0 1 .854 2.547z" opacity=".2"/><path fill="#000" fill-rule="nonzero" d="M54.843 92.627c-.218.094-.43.205-.63.332a.998.998 0 0 0-.336.302.395.395 0 0 0 0 .43c.126.125.3.187.476.172a.9.9 0 0 0 .861-.285l.364-.33c.127-.114.265-.272.209-.433a.382.382 0 0 0-.308-.209 1.28 1.28 0 0 0-.908.16" opacity=".1"/><circle cx=".962" cy=".821" r="1" fill="#000" fill-rule="nonzero" opacity=".1" transform="translate(56.883 94.744)"/><path fill="#000" fill-rule="nonzero" d="M59.254 92.761a1.119 1.119 0 1 1-1.259-1.119c.49.286.918.666 1.259 1.119zM59.336 97.735a4.211 4.211 0 0 1-3.186 1.783v-.177a2.001 2.001 0 0 1 3.193-1.606h-.007z" opacity=".1"/><rect width="18.596" height="10.985" x=".074" y="5.337" fill="url(#j)" fill-rule="nonzero" rx="5.493" transform="rotate(-61.97 154.416 -81.876)"/><rect width="10.427" height="17.723" x="162.912" y="80.832" fill="#535461" fill-rule="nonzero" rx="5.214" transform="rotate(28.03 168.125 89.694)"/><path d="M156.418 100.603l4.066 2.164-3.174 3.551"/><path fill="#E0E0E0" fill-rule="nonzero" d="M173.084 87.11l-5.315-2.691-.565-2.447 7.913 4.03z"/><path fill="#E0E0E0" fill-rule="nonzero" d="M175.048 86.133l-7.838-4.172 2.01-.004 4.687 2.3z"/><path fill="url(#k)" fill-rule="nonzero" d="M179.65 91.437c-.559-.724-1.799-.802-2.414-.155.287-1.884-.373-3.894-1.679-5.343-.216-.24-.804-.933-1.132-.81a1.822 1.822 0 0 0-.746.737l-5.513-2.934.11-.205c.423-.804-.203-1.171-1.082-1.399a4.885 4.885 0 0 0-2.335 0c-1.217.29-2.3.933-3.357 1.573l-.462-1.492a.64.64 0 0 0-.278-.424.632.632 0 0 0-.526.077c-.746.352-1.516.729-1.997 1.384-.482.654-.603 1.473-.719 2.267-.115.795-.292 1.865.258 2.457.591.636 1.34 1.072 2.197.977 1.34-.15 2.721-.312 3.93-.852l-3.73 7.003.081.045-6.21 10.043 4.52 2.376 5.853-10.204.133.071-5.308 10.495 4.575 2.463 4.849-10.768.142.076 3.765-7.074.067.166 1.235 3.044c.257.634.56 1.326 1.195 1.62.452.213 1.242-.313 1.697-.49a5.2 5.2 0 0 0 1.231-.767c.638-.486 1.293-.99 1.679-1.678.386-.688.48-1.632-.028-2.28z"/><path fill="#EEE" fill-rule="nonzero" d="M179.144 91.373a1.593 1.593 0 0 0-2.328-.115 6.47 6.47 0 0 0-1.542-5.235c-.205-.233-.67-.855-.987-.731-.15.057-.364.479-.537.833l-5.825-3.1.11-.203c.42-.796.098-1.003-.745-1.214a4.623 4.623 0 0 0-2.253.043c-1.18.302-2.238.955-3.264 1.598l-.425-1.466a.455.455 0 0 0-.77-.33c-.722.358-1.474.746-1.948 1.394-.474.647-.602 1.458-.725 2.238s-.207 1.648.313 2.223c.56.617 1.531.56 2.36.453 1.295-.166 2.629-.347 3.8-.897l-4.062 7.617.079.042-6.138 9.978 4.134 2.2 5.987-10.059.127.067-5.121 10.52 4.215 2.239 4.836-10.672.136.073 3.99-7.496.06.163 1.146 2.984c.238.619.528 1.305 1.13 1.578.448.181.952.17 1.391-.032a5.209 5.209 0 0 0 1.2-.774c.622-.489 1.26-.994 1.652-1.679.392-.684.483-1.61.004-2.24z"/><path fill="#535461" fill-rule="nonzero" d="M162.812 78.814a.806.806 0 0 0-.916-.113c-.29.161-.522.409-.664.708a.933.933 0 0 1-.356.448.574.574 0 0 1-.48-.026 3.22 3.22 0 0 1-.416-.267 1.052 1.052 0 0 0-.84-.205c-.288.08-.499.436-.344.692a.705.705 0 0 0-.474.923.532.532 0 0 0-.16.942.448.448 0 0 0-.476.526.85.85 0 0 0 .291.393c.268.242.539.478.814.71.227.227.51.39.82.47.832.143 1.032-.892 1.27-1.448.357-.832.751-1.647 1.183-2.445.065-.122.78-1.274.748-1.308zM180.14 88.039c.328.082.57.36.606.695.027.331-.049.662-.218.948a.933.933 0 0 0-.172.544c.038.16.144.296.289.373.146.077.297.143.453.196.287.094.52.307.64.584.093.284-.084.657-.373.671a.705.705 0 0 1-.502.909.532.532 0 0 1-.692.66.448.448 0 0 1-.171.688.85.85 0 0 1-.489-.022c-.35-.087-.697-.18-1.044-.278a1.813 1.813 0 0 1-.849-.418c-.582-.61.166-1.356.492-1.865.492-.76.948-1.543 1.37-2.346.057-.112.605-1.349.66-1.34z"/><path fill="url(#l)" fill-rule="nonzero" d="M178.291 81.755l-.817-.44c.469-2.051-.373-4.118-2.167-5.073-1.794-.954-3.976-.501-5.408 1.036l-.806-.43-.99 1.866.688.373c-.746 2.109.205 4.274 2.182 5.326 1.977 1.052 4.3.629 5.636-1.164l.709.373.973-1.867z"/><path fill="#EEE" fill-rule="nonzero" d="M177.999 81.75l-.786-.414c.409-1.88-.326-3.967-2.029-4.873-1.703-.907-3.844-.35-5.17 1.035l-.764-.407-.914 1.693.654.35c-.654 1.926.278 3.93 2.143 4.93 1.865 1 4.059.65 5.286-.979l.673.358.907-1.693z"/><circle cx="172.995" cy="80.54" r="3.447" fill="#535461" fill-rule="nonzero" transform="rotate(-61.97 172.995 80.54)"/><path fill="url(#m)" fill-rule="nonzero" d="M4.918 3.812c-.54 1.017-1.492.29-2.771-.393C.867 2.736-.27 2.356.282 1.339.832.323 2.466-.256 3.749.427c1.283.683 1.71 2.37 1.17 3.385z" transform="translate(153.679 103.136)"/><path fill="url(#n)" fill-rule="nonzero" d="M4.88 3.775c-.54 1.016-1.491.289-2.77-.394C.83 2.7-.307 2.318.243 1.301.794.286 2.428-.292 3.711.39c1.284.682 1.71 2.368 1.17 3.385z" transform="translate(158.9 105.934)"/><path fill="#535461" fill-rule="nonzero" d="M158.451 106.803c-.494.932-1.373.26-2.56-.373-1.189-.632-2.239-.987-1.74-1.916.497-.928 2.01-1.454 3.198-.822 1.188.632 1.6 2.18 1.102 3.11zM163.6 109.709c-.494.932-1.372.259-2.56-.373-1.188-.633-2.238-.987-1.74-1.916.498-.929 2.01-1.455 3.198-.822 1.188.632 1.597 2.182 1.102 3.11z"/><rect width="7.613" height="7.068" x="1.174" y="1.538" fill="url(#o)" fill-rule="nonzero" rx="3.534" transform="rotate(-61.97 157.51 -87.785)"/><rect width="6.746" height="7.141" x="164.398" y="86.911" fill="#535461" fill-rule="nonzero" rx="3.373" transform="rotate(28.03 167.77 90.481)"/><path fill="#000" fill-rule="nonzero" d="M166.606 87.354l1.092.581-1.549 2.91-1.092-.582zM168.408 89.675l1.435.764-.523.983-1.435-.764zM170.279 88.679l.883.47-.47.882-.883-.47z" opacity=".2"/><circle cx="168.674" cy="92.804" r="1" fill="#000" fill-rule="nonzero" opacity=".2" transform="rotate(-61.97 168.674 92.804)"/><path fill="#000" fill-rule="nonzero" d="M174.634 78.367a3.441 3.441 0 0 1 1.785 2.503 3.447 3.447 0 1 0-6.834.201 3.447 3.447 0 0 1 5.049-2.704z" opacity=".2"/><circle cx="178.28" cy="79.868" r="1" fill="#FFF" fill-rule="nonzero" transform="rotate(-65.15 178.28 79.868)"/><path fill="#535461" fill-rule="nonzero" d="M166.253 81.487l.208 5.285.847-.149s.174-2.997.032-4.996a2.104 2.104 0 0 0-1.087-.14zM175.982 86.93l-4.567 2.668-.33-.793s2.467-1.788 4.228-2.745c.436.263.67.87.67.87z"/></g></svg>