<svg xmlns="http://www.w3.org/2000/svg" viewBox="0 0 116 25"><path fill="#FFF" fill-rule="evenodd" d="M.52 24.46v-2.938h2.626c.494 0 .702-.442.702-.936V8.6H1.456V5.662h5.668v14.976c0 2.106-1.664 3.822-3.77 3.822H.52zM4.264 3.426a.522.522 0 0 1-.52-.52V.566c0-.286.234-.52.52-.52h2.444c.286 0 .52.234.52.52v2.34c0 .286-.234.52-.52.52H4.264zm10.504 15.652c-2.678 0-4.16-1.794-4.16-4.056 0-1.664.936-3.51 3.146-3.9l4.42-.78c.702-.13.806-.65.806-1.014 0-.39-.312-.806-1.014-.806h-3.094c-.832 0-.936 1.326-.936 1.326l-2.912-.702s.286-3.562 3.926-3.562h3.38c2.158 0 3.666 1.56 3.666 3.926V19H18.85v-1.274c-.338.832-1.508 1.352-2.574 1.352h-1.508zm-.026-2.964h2.574c.936 0 1.482-.442 1.482-1.768v-1.43c-.13.156-.494.26-.806.312l-3.432.65c-.494.104-.806.546-.806 1.04 0 .572.364 1.196.988 1.196zM26 19V5.662h3.094v1.326c.494-.91 1.534-1.326 2.6-1.326h1.716V8.6h-2.34c-.936 0-1.69.65-1.69 1.976V19H26zm14.3 5.46a4.526 4.526 0 0 1-4.498-3.978l2.912-.754.13.546c.182.806.598 1.196 1.326 1.196h2.262c.728 0 1.3-.572 1.3-1.274v-2.808c-.416.676-1.222.988-2.21.988h-1.924c-2.132 0-3.874-1.716-3.874-3.848V9.432c0-2.132 1.976-3.848 3.9-3.848h1.846c1.17 0 1.95.494 2.262 1.17V5.662h3.302v14.274c0 2.496-2.028 4.524-4.55 4.524H40.3zm.182-9.048h1.248c1.586 0 1.95-.572 1.95-1.846v-3.12c0-1.274-.754-1.924-1.664-1.924H40.56c-1.508 0-1.768.572-1.768 1.82v3.094c0 1.326.754 1.976 1.69 1.976zm14.69 3.666c-2.496 0-4.498-1.95-4.498-4.472V10.03c0-2.496 2.002-4.446 4.498-4.446h2.756c2.496 0 4.524 1.95 4.524 4.446v4.576c0 2.522-2.028 4.472-4.524 4.472h-2.756zm-.182-2.964h3.12c.702 0 1.222-.52 1.222-1.248V9.77c0-.728-.52-1.248-1.222-1.248h-3.12c-.702 0-1.222.52-1.222 1.248v5.096c0 .728.52 1.248 1.222 1.248zM66.066 19V5.662h3.146V6.91c.468-.806 1.508-1.326 2.548-1.326h2.002c2.132 0 3.848 1.716 3.848 3.822V19h-3.276v-8.424c0-1.3-.364-2.054-1.924-2.054h-1.274c-.936 0-1.69.832-1.69 2.158V19h-3.38zm15.418 0v-2.21h3.562V7.898H82.16V5.662h5.2V16.79h3.042V19h-8.918zM85.28 2.724a.456.456 0 0 1-.442-.442V.488c0-.234.208-.442.442-.442h1.872c.234 0 .442.208.442.442v1.794a.456.456 0 0 1-.442.442H85.28zm12.558 16.354c-2.522 0-3.796-1.976-4.082-3.146l-.182-.754 2.158-.546.182.702c.208.78.754 1.534 1.82 1.534h2.86c1.118 0 1.898-.728 1.898-1.612v-.208c0-.702-.364-1.248-1.118-1.404l-4.498-.858c-2.028-.39-2.938-1.742-2.938-3.146v-.442c0-2.236 1.898-3.614 4.186-3.614h2.34c2.444 0 3.718 1.898 4.004 3.042l.13.546-2.132.572-.156-.494c-.182-.572-.65-1.43-1.742-1.43H98.02c-1.352 0-1.82.598-1.82 1.482v.156c0 .572.312 1.014 1.196 1.196l4.628.91c1.794.364 2.73 1.82 2.73 3.302v.572c0 1.95-1.612 3.64-4.16 3.64h-2.756zM113.36 19c-2.21 0-3.302-1.17-3.302-3.328V8.496h-2.054v-2.21h2.054V1.892l2.34-.65v5.044h3.068v2.21h-3.068v6.864c0 1.066.546 1.43 1.352 1.43h2.028V19h-2.418z"/></svg>
