<svg viewBox="0 0 42 48" xmlns="http://www.w3.org/2000/svg"><g fill="#FF5A57" fill-rule="evenodd"><path d="M39.434 16.201c.028-1.774-.471-5.126-1.57-6.931-1.282-2.1-1.631-1.322-1.787-3.812-.155-2.49-4.076-3.228-4.076-3.228-1.282-1.09-2.563-.855-2.563-.855C28.313.285 26.41.71 26.41.71 23.848-.844 21.402.635 21.402.635 13.21-.222 9.328 5.81 9.328 5.81c-3.806 2.294-3.65 7.896-3.65 7.896-3.96 2.178-2.485 6.068-2.485 6.068-1.475 3.035.388 11.981.388 11.981-.257 1.144.636 5.394.73 5.837-.131-.724.28-5.252.28-5.252-.971-3.23-.116-8.87-.116-8.87-.466-2.49 1.514-5.835 2.251-6.81.738-.974 1.554-1.242 4.154-.699 2.602.545 3.417 1.091 6.6 1.946 3.184.857 6.24-.068 7.921-1.167 1.901-1.244 5.183-1.97 6.954-1.71.842.125 2.278.455 3.34 1.279.12.09.395.421.494.552.737.974 2.107 4.077 2.064 6.608-.039 2.218.855 5.642-.117 8.87 0 0 .41 4.53.28 5.253.094-.443.988-4.693.73-5.837 0 0 1.863-8.946.388-11.98 0 0 .666-1.76-.1-3.573z"/><g transform="translate(8.531 23.671)"><rect width="17.063" height="1.973" rx=".986"/><rect y="6.575" width="17.063" height="1.973" rx=".986"/><rect y="3.288" width="13.781" height="1.973" rx=".986"/></g><path d="M35.816 31.452l-2.029-2.114a3.45 3.45 0 0 0-2.635-5.667 3.45 3.45 0 0 0 0 6.899c.713 0 1.392-.216 1.972-.625l2.045 2.131a.445.445 0 0 0 .635.013.451.451 0 0 0 .012-.637zm-4.664-6.881a2.55 2.55 0 0 1 0 5.099 2.55 2.55 0 0 1 0-5.099z" fill-rule="nonzero"/><g><path d="M12.382 43.36s-6.57 5.043-9.998.7c-3.425-4.342 2.726-3.434 1.609-1.401 0 0 2.702-1.748.42-3.363C2.035 37.614-.475 40.49.076 43.095c.49 2.311 7.03 5.486 14.968 3.795 5.727-1.22 5.727-5.563 5.727-5.563s-3.147-1.962-8.39 2.032M37.36 39.296c-2.284 1.615.42 3.363.42 3.363-1.119-2.033 5.034-2.941 1.607 1.4-3.426 4.344-9.997-.7-9.997-.7-5.243-3.994-8.39-2.032-8.39-2.032s0 4.343 5.726 5.563c7.94 1.69 14.48-1.484 14.968-3.795.55-2.605-1.957-5.481-4.334-3.799"/></g></g></svg>
