<svg xmlns="http://www.w3.org/2000/svg" width="219" height="152" viewBox="0 0 219 152"><defs><linearGradient id="a" x1="49.999%" x2="49.999%" y1="100%" y2="0%"><stop offset="0%" stop-color="gray" stop-opacity=".25"/><stop offset="54%" stop-color="gray" stop-opacity=".12"/><stop offset="100%" stop-color="gray" stop-opacity=".1"/></linearGradient><linearGradient id="b" x1="36714%" x2="36714%" y1="36923%" y2="34310%"><stop offset="0%" stop-color="gray" stop-opacity=".25"/><stop offset="54%" stop-color="gray" stop-opacity=".12"/><stop offset="100%" stop-color="gray" stop-opacity=".1"/></linearGradient></defs><g fill="none" fill-rule="nonzero"><path fill="url(#a)" d="M0 0v151.869h219.002V0z" opacity=".5"/><path fill="#FFF" d="M3.249 9.451h213.432v139.718H3.249z"/><path fill="#F5F5F5" d="M3.249 2.805h213.432v10.279H3.249z"/><circle cx="11.37" cy="7.788" r="2.492" fill="#FF5252"/><circle cx="18.225" cy="7.788" r="2.492" fill="#FF0"/><circle cx="25.077" cy="7.788" r="2.492" fill="#69F0AE"/><path fill="#4C5BE6" d="M89.951 46.807h39.252v4.205H89.951z" opacity=".5"/><path fill="#E0E0E0" d="M61.605 64.874h42.989v4.205H61.605z"/><path fill="#3AD29F" d="M157.553 69.083h-42.99v-4.205h42.99z"/><path fill="#E0E0E0" d="M61.447 73.908h95.948v4.205H61.447zM61.447 82.944h95.948v4.205H61.447z"/><path fill="url(#b)" d="M89.486 102.257h39.875v7.788H89.486z"/><path fill="#4C5BE6" d="M89.796 102.967h39.252v6.372H89.796z"/></g></svg>